<svg width="182" height="91" viewBox="0 0 182 91" fill="none" xmlns="http://www.w3.org/2000/svg">
<path d="M24.3689 1.72998H23.1401L22.8983 2.93481L19.4497 20.1169H8.39968H6.89968V21.6169V35.8602V37.3602H8.39968H15.9889L13.0306 52.0997H3H1.5V53.5997V67.8431V69.3431H3H9.56974L6.23969 85.9348L5.87938 87.73H7.71036H24.4838H25.7143L25.9549 86.5232L29.3792 69.3431H37.8089L34.5014 85.9368L34.144 87.73H35.9725H52.6311H53.8599L54.1017 86.5252L57.5503 69.3431H68.6003H70.1003V67.8431V53.5997V52.0997H68.6003H61.0111L63.9694 37.3602H74H75.5V35.8602V21.6169V20.1169H74H67.4303L70.7603 3.52515L71.1206 1.72998H69.2897H52.5162H51.2857L51.0451 2.93677L47.6208 20.1169H39.1911L42.4986 3.52319L42.856 1.72998H41.0275H24.3689ZM41.2459 52.0997H32.8162L35.7541 37.3602H44.1838L41.2459 52.0997Z" stroke="#56B3FF" stroke-width="3"/>
<path d="M94.6887 2.72998H86H84.5V4.22998V20.3904V21.8904H86H94.6887V87.23V88.73H96.1887H116H117.5V87.23V4.22998V2.72998H116H110.821H109.321H96.1887H94.6887Z" stroke="#56B3FF" stroke-width="3"/>
<path d="M162.097 1.72998H132H130.5V3.22998V20.6833V22.1833H132H155.296L134.156 85.7567L133.5 87.73H135.58H156.482H157.578L157.911 86.6851L180.429 15.967L180.5 15.745V15.5119V3.22998V1.72998H179H176.112H174.612H163.179H162.097Z" stroke="#56B3FF" stroke-width="3"/>
</svg>
